<?xml version="1.0" encoding="UTF-8"?>
<svg id="_레이어_1" data-name="레이어_1" xmlns="http://www.w3.org/2000/svg" version="1.1" viewBox="0 0 500 51">
  <!-- Generator: Adobe Illustrator 30.2.1, SVG Export Plug-In . SVG Version: 2.1.1 Build 1)  -->
  <defs>
    <style>
      .st0 {
        fill: #e8d8c0;
      }
    </style>
  </defs>
  <path class="st0" d="M67.96,26.38c0,2.08-1.26,3.91-3.65,5.48-2.28,1.51-5.25,2.27-8.9,2.27H21.73v15.75H4.04V1.12h51.37c3.42,0,6.39.76,8.9,2.27,2.4,1.45,3.65,3.34,3.65,5.55v17.45ZM50.26,8.68h-28.53v17.9h28.53V8.68Z"/>
  <path class="st0" d="M142.12,14.98c0,4.73-5.25,8-12.56,8h-31.73v6.55h44.41v7.56h-49.54c-3.42,0-6.39-.88-8.9-2.58-2.4-1.7-3.65-3.79-3.65-6.18V9.88c0-2.4,1.25-4.48,3.65-6.18,2.51-1.7,5.48-2.58,8.9-2.58h36.87c7.31,0,12.56,3.28,12.56,8v5.86ZM97.83,8.68v6.74h26.6v-6.74h-26.6Z"/>
  <path class="st0" d="M162.65,23.11c-7.31,0-12.56-3.28-12.56-8v-5.98c0-4.73,5.25-8,12.56-8h45.77v7.56h-39.5v6.87h25.91c7.88,0,12.55,3.15,12.55,7.94v5.8c0,4.73-5.25,7.81-12.55,7.81h-44.97v-7.5h38.69v-6.49h-25.91Z"/>
  <path class="st0" d="M230.31,23.11c-7.31,0-12.56-3.28-12.56-8v-5.98c0-4.73,5.25-8,12.56-8h45.77v7.56h-39.5v6.87h25.91c7.88,0,12.55,3.15,12.55,7.94v5.8c0,4.73-5.25,7.81-12.55,7.81h-44.97v-7.5h38.69v-6.49h-25.91Z"/>
  <path class="st0" d="M298.66,1.12h35.27c3.42,0,6.39.82,8.9,2.52,2.4,1.57,3.65,3.53,3.65,5.86v20.04h6.39v7.56h-54.56c-3.54,0-6.5-.82-8.9-2.46-2.4-1.7-3.65-3.65-3.65-5.93V9.49c0-2.14,1.26-4.09,3.88-5.86,2.51-1.7,5.48-2.52,9.02-2.52ZM328.79,29.54V8.68h-25.34v20.86h25.34Z"/>
  <path class="st0" d="M405.02,42.26v-5.16h-32.87c-3.54,0-6.5-.69-8.91-2.14-2.4-1.45-3.65-3.21-3.65-5.23V8.49c0-2.08,1.26-3.78,3.65-5.23,2.51-1.45,5.48-2.14,8.91-2.14h38.01c3.43,0,6.39.69,8.91,2.14,2.4,1.45,3.65,3.15,3.65,5.23v34.03c0,2.08-1.26,3.84-3.65,5.23-2.51,1.45-5.48,2.14-8.91,2.14h-48.39v-7.62h43.26ZM405.02,29.54V8.68h-27.96v20.86h27.96Z"/>
  <path class="st0" d="M495.85,14.98c0,4.73-5.25,8-12.55,8h-31.73v6.55h44.4v7.56h-49.54c-3.42,0-6.39-.88-8.9-2.58-2.4-1.7-3.65-3.79-3.65-6.18V9.88c0-2.4,1.26-4.48,3.65-6.18,2.51-1.7,5.48-2.58,8.9-2.58h36.87c7.31,0,12.55,3.28,12.55,8v5.86ZM451.56,8.68v6.74h26.59v-6.74h-26.59Z"/>
</svg>